<svg xmlns="http://www.w3.org/2000/svg" xmlns:xlink="http://www.w3.org/1999/xlink" width="150" zoomAndPan="magnify" viewBox="0 0 112.5 60" height="80" preserveAspectRatio="xMidYMid meet" version="1.0"><defs><g/><clipPath id="43f18c915d"><path d="M 0 0.132812 L 112.003906 0.132812 L 112.003906 59.867188 L 0 59.867188 Z M 0 0.132812 " clip-rule="nonzero"/></clipPath><clipPath id="7aa93c063e"><path d="M 14.507812 3 L 80 3 L 80 31 L 14.507812 31 Z M 14.507812 3 " clip-rule="nonzero"/></clipPath><clipPath id="3da2a7667c"><path d="M 35 9 L 100.367188 9 L 100.367188 36.5 L 35 36.5 Z M 35 9 " clip-rule="nonzero"/></clipPath><clipPath id="0697a68ef0"><path d="M 27.53125 11 L 43 11 L 43 30 L 27.53125 30 Z M 27.53125 11 " clip-rule="nonzero"/></clipPath><clipPath id="201bc24083"><path d="M 47 13 L 81.976562 13 L 81.976562 27 L 47 27 Z M 47 13 " clip-rule="nonzero"/></clipPath><clipPath id="ebf15d0d9b"><path d="M 38 8.921875 L 50 8.921875 L 50 31.957031 L 38 31.957031 Z M 38 8.921875 " clip-rule="nonzero"/></clipPath></defs><g clip-path="url(#43f18c915d)"><path fill="#ffffff" d="M 0 0.132812 L 112.003906 0.132812 L 112.003906 59.867188 L 0 59.867188 Z M 0 0.132812 " fill-opacity="1" fill-rule="nonzero"/><path fill="#ffffff" d="M 0 0.132812 L 112.003906 0.132812 L 112.003906 59.867188 L 0 59.867188 Z M 0 0.132812 " fill-opacity="1" fill-rule="nonzero"/></g><g clip-path="url(#7aa93c063e)"><path fill="#004aad" d="M 18.207031 23.691406 C 17.429688 15.035156 34.414062 6.4375 56.144531 4.480469 C 64.613281 3.71875 72.558594 4.078125 79.140625 5.316406 C 72.796875 3.847656 65.421875 3.003906 57.554688 3.003906 C 33.785156 3.003906 14.507812 10.683594 14.507812 20.152344 C 14.507812 24.074219 17.8125 27.6875 23.367188 30.574219 C 20.296875 28.65625 18.445312 26.324219 18.207031 23.691406 Z M 18.207031 23.691406 " fill-opacity="1" fill-rule="nonzero"/></g><g clip-path="url(#3da2a7667c)"><path fill="#004aad" d="M 91.738281 9.734375 C 94.804688 11.652344 96.660156 13.984375 96.894531 16.617188 C 97.675781 25.273438 80.691406 33.878906 58.960938 35.832031 C 50.488281 36.59375 42.546875 36.230469 35.964844 34.996094 C 42.300781 36.464844 49.695312 37.304688 57.554688 37.304688 C 81.320312 37.304688 100.597656 29.625 100.597656 20.152344 C 100.597656 16.234375 97.292969 12.621094 91.738281 9.734375 Z M 91.738281 9.734375 " fill-opacity="1" fill-rule="nonzero"/></g><g clip-path="url(#0697a68ef0)"><path fill="#004aad" d="M 42.269531 24.710938 C 42.207031 24.808594 42.109375 24.875 41.996094 24.898438 C 41.878906 24.921875 41.761719 24.898438 41.667969 24.835938 C 41.570312 24.773438 41.503906 24.671875 41.480469 24.558594 C 41.457031 24.445312 41.476562 24.328125 41.542969 24.230469 C 41.605469 24.132812 41.703125 24.066406 41.820312 24.042969 C 41.847656 24.039062 41.878906 24.035156 41.90625 24.035156 C 41.992188 24.035156 42.074219 24.058594 42.148438 24.105469 C 42.347656 24.238281 42.402344 24.511719 42.269531 24.710938 Z M 35.335938 28.4375 C 35.097656 28.4375 34.898438 28.242188 34.898438 28 C 34.898438 27.761719 35.097656 27.566406 35.335938 27.566406 C 35.578125 27.566406 35.773438 27.761719 35.773438 28 C 35.773438 28.242188 35.578125 28.4375 35.335938 28.4375 Z M 29.222656 24.558594 C 29.199219 24.671875 29.132812 24.773438 29.035156 24.835938 C 28.9375 24.898438 28.820312 24.921875 28.707031 24.898438 C 28.589844 24.875 28.492188 24.808594 28.429688 24.710938 C 28.296875 24.511719 28.351562 24.238281 28.554688 24.105469 C 28.625 24.058594 28.707031 24.035156 28.792969 24.035156 C 28.820312 24.035156 28.851562 24.039062 28.882812 24.042969 C 28.996094 24.066406 29.09375 24.132812 29.15625 24.230469 C 29.222656 24.328125 29.246094 24.445312 29.222656 24.558594 Z M 29.15625 16.066406 C 29.09375 16.164062 28.996094 16.230469 28.882812 16.253906 C 28.765625 16.277344 28.652344 16.253906 28.554688 16.191406 C 28.351562 16.058594 28.296875 15.785156 28.429688 15.585938 C 28.492188 15.488281 28.589844 15.421875 28.707031 15.398438 C 28.820312 15.375 28.9375 15.394531 29.035156 15.460938 C 29.132812 15.523438 29.199219 15.625 29.222656 15.738281 C 29.246094 15.851562 29.222656 15.96875 29.15625 16.066406 Z M 35.335938 11.859375 C 35.578125 11.859375 35.773438 12.054688 35.773438 12.292969 C 35.773438 12.535156 35.578125 12.730469 35.335938 12.730469 C 35.097656 12.730469 34.898438 12.535156 34.898438 12.292969 C 34.898438 12.054688 35.097656 11.859375 35.335938 11.859375 Z M 41.480469 15.738281 C 41.503906 15.625 41.570312 15.523438 41.667969 15.460938 C 41.738281 15.414062 41.820312 15.386719 41.90625 15.386719 C 41.933594 15.386719 41.964844 15.390625 41.996094 15.398438 C 42.109375 15.421875 42.207031 15.488281 42.269531 15.585938 C 42.402344 15.785156 42.347656 16.058594 42.148438 16.191406 C 42.050781 16.253906 41.933594 16.277344 41.820312 16.253906 C 41.703125 16.230469 41.605469 16.164062 41.542969 16.066406 C 41.476562 15.96875 41.457031 15.851562 41.480469 15.738281 Z M 42.492188 23.582031 C 42.253906 23.425781 41.972656 23.371094 41.691406 23.429688 C 41.519531 23.464844 41.363281 23.542969 41.230469 23.648438 L 40.382812 23.089844 L 41.777344 22.625 C 41.941406 22.570312 42.03125 22.394531 41.976562 22.230469 C 41.921875 22.066406 41.742188 21.976562 41.578125 22.03125 L 39.714844 22.652344 L 38.75 22.015625 L 40.144531 21.550781 C 40.3125 21.496094 40.398438 21.320312 40.34375 21.15625 C 40.289062 20.992188 40.113281 20.902344 39.949219 20.957031 L 38.085938 21.578125 L 35.917969 20.148438 L 38.070312 18.730469 L 39.960938 19.363281 C 39.996094 19.371094 40.027344 19.378906 40.0625 19.378906 C 40.191406 19.378906 40.316406 19.292969 40.359375 19.164062 C 40.414062 19 40.324219 18.820312 40.160156 18.765625 L 38.734375 18.292969 L 39.699219 17.65625 L 41.59375 18.285156 C 41.625 18.296875 41.660156 18.300781 41.691406 18.300781 C 41.824219 18.300781 41.945312 18.21875 41.988281 18.089844 C 42.042969 17.925781 41.957031 17.746094 41.789062 17.691406 L 40.363281 17.21875 L 41.230469 16.644531 C 41.363281 16.753906 41.519531 16.832031 41.691406 16.867188 C 41.765625 16.882812 41.835938 16.890625 41.910156 16.890625 C 42.113281 16.890625 42.316406 16.828125 42.492188 16.710938 C 42.980469 16.390625 43.117188 15.730469 42.792969 15.238281 C 42.636719 15.003906 42.398438 14.839844 42.121094 14.785156 C 41.84375 14.726562 41.558594 14.78125 41.320312 14.9375 C 41.085938 15.09375 40.921875 15.332031 40.863281 15.609375 C 40.828125 15.785156 40.835938 15.957031 40.886719 16.121094 L 40.035156 16.683594 L 40.160156 15.21875 C 40.171875 15.042969 40.046875 14.894531 39.875 14.878906 C 39.699219 14.863281 39.550781 14.992188 39.535156 15.164062 L 39.371094 17.121094 L 38.40625 17.757812 L 38.527344 16.292969 C 38.542969 16.121094 38.414062 15.96875 38.242188 15.953125 C 38.070312 15.9375 37.917969 16.066406 37.90625 16.238281 L 37.742188 18.195312 L 35.648438 19.574219 L 35.648438 17.097656 L 37.21875 15.863281 C 37.355469 15.757812 37.378906 15.558594 37.273438 15.425781 C 37.164062 15.289062 36.96875 15.265625 36.832031 15.371094 L 35.648438 16.300781 L 35.648438 15.144531 L 37.21875 13.910156 C 37.355469 13.804688 37.378906 13.605469 37.273438 13.472656 C 37.164062 13.335938 36.96875 13.3125 36.832031 13.417969 L 35.648438 14.347656 L 35.648438 13.3125 C 36.085938 13.175781 36.398438 12.773438 36.398438 12.292969 C 36.398438 11.707031 35.921875 11.230469 35.335938 11.230469 C 34.75 11.230469 34.273438 11.707031 34.273438 12.292969 C 34.273438 12.773438 34.589844 13.175781 35.023438 13.3125 L 35.023438 14.328125 L 33.867188 13.417969 C 33.730469 13.3125 33.535156 13.335938 33.425781 13.472656 C 33.320312 13.605469 33.34375 13.804688 33.480469 13.910156 L 35.023438 15.125 L 35.023438 16.28125 L 33.867188 15.371094 C 33.730469 15.265625 33.535156 15.289062 33.425781 15.425781 C 33.320312 15.558594 33.34375 15.757812 33.480469 15.863281 L 35.023438 17.078125 L 35.023438 19.558594 L 32.960938 18.195312 L 32.796875 16.238281 C 32.78125 16.066406 32.628906 15.9375 32.457031 15.953125 C 32.285156 15.96875 32.15625 16.121094 32.171875 16.292969 L 32.292969 17.757812 L 31.328125 17.121094 L 31.164062 15.164062 C 31.152344 14.992188 31 14.863281 30.828125 14.878906 C 30.65625 14.894531 30.527344 15.042969 30.539062 15.21875 L 30.664062 16.683594 L 29.8125 16.121094 C 29.863281 15.957031 29.871094 15.785156 29.835938 15.609375 C 29.777344 15.332031 29.617188 15.09375 29.378906 14.9375 C 29.140625 14.78125 28.859375 14.726562 28.578125 14.785156 C 28.300781 14.839844 28.0625 15.003906 27.90625 15.238281 C 27.582031 15.730469 27.71875 16.390625 28.207031 16.710938 C 28.382812 16.828125 28.585938 16.890625 28.789062 16.890625 C 28.863281 16.890625 28.933594 16.882812 29.007812 16.867188 C 29.179688 16.832031 29.335938 16.753906 29.46875 16.644531 L 30.335938 17.21875 L 28.910156 17.691406 C 28.746094 17.746094 28.65625 17.925781 28.710938 18.089844 C 28.753906 18.21875 28.875 18.300781 29.007812 18.300781 C 29.039062 18.300781 29.074219 18.296875 29.105469 18.285156 L 31 17.65625 L 31.964844 18.292969 L 30.539062 18.765625 C 30.375 18.820312 30.285156 19 30.339844 19.164062 C 30.386719 19.292969 30.507812 19.378906 30.636719 19.378906 C 30.671875 19.378906 30.703125 19.371094 30.738281 19.363281 L 32.632812 18.730469 L 34.78125 20.148438 L 32.613281 21.578125 L 30.75 20.957031 C 30.585938 20.902344 30.410156 20.992188 30.355469 21.15625 C 30.300781 21.320312 30.390625 21.496094 30.554688 21.550781 L 31.949219 22.015625 L 30.984375 22.652344 L 29.121094 22.03125 C 28.957031 21.976562 28.78125 22.066406 28.726562 22.230469 C 28.671875 22.394531 28.757812 22.570312 28.921875 22.625 L 30.320312 23.089844 L 29.46875 23.648438 C 29.335938 23.542969 29.179688 23.464844 29.007812 23.429688 C 28.730469 23.371094 28.445312 23.425781 28.207031 23.582031 C 27.71875 23.90625 27.582031 24.566406 27.90625 25.058594 C 28.0625 25.292969 28.300781 25.457031 28.578125 25.511719 C 28.652344 25.527344 28.722656 25.535156 28.796875 25.535156 C 29 25.535156 29.203125 25.476562 29.378906 25.359375 C 29.617188 25.203125 29.777344 24.964844 29.835938 24.683594 C 29.871094 24.511719 29.863281 24.335938 29.8125 24.171875 L 30.679688 23.601562 L 30.554688 25.101562 C 30.539062 25.273438 30.667969 25.425781 30.839844 25.4375 C 30.851562 25.441406 30.859375 25.441406 30.867188 25.441406 C 31.027344 25.441406 31.164062 25.316406 31.179688 25.152344 L 31.347656 23.164062 L 32.3125 22.527344 L 32.183594 24.027344 C 32.171875 24.199219 32.300781 24.347656 32.472656 24.363281 C 32.480469 24.363281 32.488281 24.363281 32.496094 24.363281 C 32.660156 24.363281 32.796875 24.242188 32.808594 24.078125 L 32.976562 22.089844 L 35.023438 20.738281 L 35.023438 23.21875 L 33.480469 24.433594 C 33.34375 24.539062 33.320312 24.734375 33.425781 24.871094 C 33.488281 24.949219 33.582031 24.992188 33.675781 24.992188 C 33.742188 24.992188 33.808594 24.96875 33.867188 24.925781 L 35.023438 24.015625 L 35.023438 25.171875 L 33.480469 26.386719 C 33.34375 26.492188 33.320312 26.6875 33.425781 26.824219 C 33.488281 26.902344 33.582031 26.945312 33.675781 26.945312 C 33.742188 26.945312 33.808594 26.921875 33.867188 26.878906 L 35.023438 25.96875 L 35.023438 26.984375 C 34.589844 27.121094 34.273438 27.523438 34.273438 28 C 34.273438 28.589844 34.75 29.066406 35.335938 29.066406 C 35.921875 29.066406 36.398438 28.589844 36.398438 28 C 36.398438 27.523438 36.085938 27.121094 35.648438 26.984375 L 35.648438 25.949219 L 36.832031 26.878906 C 36.890625 26.921875 36.957031 26.945312 37.027344 26.945312 C 37.117188 26.945312 37.210938 26.902344 37.273438 26.824219 C 37.378906 26.6875 37.355469 26.492188 37.21875 26.386719 L 35.648438 25.152344 L 35.648438 23.996094 L 36.832031 24.925781 C 36.890625 24.96875 36.957031 24.992188 37.027344 24.992188 C 37.117188 24.992188 37.210938 24.949219 37.273438 24.871094 C 37.378906 24.734375 37.355469 24.539062 37.21875 24.433594 L 35.648438 23.199219 L 35.648438 20.722656 L 37.722656 22.089844 L 37.890625 24.078125 C 37.902344 24.242188 38.042969 24.363281 38.203125 24.363281 C 38.210938 24.363281 38.21875 24.363281 38.230469 24.363281 C 38.402344 24.347656 38.527344 24.199219 38.515625 24.027344 L 38.390625 22.527344 L 39.355469 23.164062 L 39.519531 25.152344 C 39.535156 25.316406 39.671875 25.441406 39.832031 25.441406 C 39.839844 25.441406 39.851562 25.441406 39.859375 25.4375 C 40.03125 25.425781 40.160156 25.273438 40.144531 25.101562 L 40.019531 23.601562 L 40.886719 24.171875 C 40.835938 24.335938 40.828125 24.511719 40.863281 24.683594 C 40.921875 24.964844 41.085938 25.203125 41.320312 25.359375 C 41.496094 25.476562 41.699219 25.535156 41.90625 25.535156 C 41.976562 25.535156 42.046875 25.527344 42.121094 25.511719 C 42.398438 25.457031 42.636719 25.292969 42.792969 25.058594 C 43.117188 24.566406 42.980469 23.90625 42.492188 23.582031 " fill-opacity="1" fill-rule="nonzero"/></g><g clip-path="url(#201bc24083)"><path fill="#405178" d="M 64.988281 20.601562 L 58.773438 20.601562 L 58.773438 19.105469 L 64.988281 19.105469 Z M 79.796875 13.722656 L 79.308594 13.722656 C 79.0625 14.429688 78.390625 14.941406 77.597656 14.941406 L 48.933594 14.941406 C 48.949219 14.96875 48.964844 15 48.980469 15.03125 C 49.113281 15.3125 49.058594 15.644531 48.839844 15.867188 L 47.726562 17.019531 C 47.839844 17.363281 47.933594 17.714844 48.007812 18.070312 L 49.546875 18.511719 C 49.847656 18.59375 50.058594 18.855469 50.085938 19.164062 C 50.113281 19.492188 50.125 19.820312 50.125 20.148438 C 50.125 20.472656 50.113281 20.804688 50.085938 21.132812 C 50.074219 21.25 50.039062 21.363281 49.976562 21.460938 L 81.132812 21.460938 L 81.132812 15.0625 C 81.132812 14.320312 80.535156 13.722656 79.796875 13.722656 Z M 48.007812 22.226562 C 47.933594 22.582031 47.839844 22.933594 47.726562 23.277344 L 48.839844 24.429688 L 48.84375 24.433594 L 77.75 24.433594 C 78.574219 24.433594 79.3125 24.921875 79.628906 25.679688 L 79.84375 26.1875 C 80.617188 25.71875 81.132812 24.867188 81.132812 23.898438 L 81.132812 21.996094 L 48.8125 21.996094 Z M 48.628906 25.945312 C 48.511719 26.160156 48.386719 26.367188 48.253906 26.574219 L 78.457031 26.574219 C 78.773438 26.574219 79.078125 26.519531 79.359375 26.417969 L 79.160156 25.945312 Z M 77.597656 14.539062 C 78.164062 14.539062 78.652344 14.203125 78.875 13.722656 L 48.253906 13.722656 C 48.425781 13.988281 48.582031 14.261719 48.730469 14.539062 Z M 77.75 24.96875 L 49.050781 24.96875 C 49.046875 25.070312 49.023438 25.167969 48.980469 25.265625 C 48.921875 25.386719 48.863281 25.503906 48.800781 25.625 L 78.992188 25.625 C 78.714844 25.21875 78.253906 24.96875 77.75 24.96875 " fill-opacity="1" fill-rule="nonzero"/></g><g clip-path="url(#ebf15d0d9b)"><path fill="#004aad" d="M 49.34375 21.070312 C 49.367188 20.765625 49.382812 20.460938 49.382812 20.148438 C 49.382812 19.835938 49.367188 19.53125 49.34375 19.226562 L 47.359375 18.660156 C 47.257812 18.027344 47.09375 17.414062 46.871094 16.832031 L 48.308594 15.351562 C 48.042969 14.792969 47.734375 14.257812 47.382812 13.753906 L 45.382812 14.261719 C 44.984375 13.769531 44.535156 13.320312 44.046875 12.921875 L 44.550781 10.921875 C 44.046875 10.570312 43.515625 10.261719 42.957031 10 L 41.476562 11.433594 C 40.890625 11.210938 40.277344 11.046875 39.644531 10.945312 L 39.082031 8.960938 C 38.777344 8.9375 38.46875 8.925781 38.15625 8.925781 L 38.15625 12.921875 C 42.148438 12.921875 45.382812 16.15625 45.382812 20.148438 C 45.382812 24.140625 42.148438 27.375 38.15625 27.375 L 38.15625 31.371094 C 38.46875 31.371094 38.777344 31.359375 39.082031 31.335938 L 39.644531 29.351562 C 40.277344 29.25 40.890625 29.085938 41.476562 28.863281 L 42.957031 30.296875 C 43.515625 30.035156 44.046875 29.722656 44.550781 29.375 L 44.046875 27.375 C 44.535156 26.976562 44.984375 26.527344 45.382812 26.035156 L 47.382812 26.542969 C 47.734375 26.039062 48.042969 25.503906 48.308594 24.945312 L 46.871094 23.464844 C 47.09375 22.882812 47.257812 22.269531 47.359375 21.636719 L 49.34375 21.070312 " fill-opacity="1" fill-rule="nonzero"/></g><g fill="#004aad" fill-opacity="1"><g transform="translate(7.70155, 46.816682)"><g><path d="M 1.84375 0 L 1.84375 -3.765625 L 0.234375 -3.765625 L 0.234375 -5.90625 L 5.875 -5.90625 L 5.875 -3.765625 L 4.265625 -3.765625 L 4.265625 0 Z M 1.84375 0 "/></g></g></g><g fill="#004aad" fill-opacity="1"><g transform="translate(13.811582, 46.816682)"><g><path d="M 3.484375 0.125 C 2.816406 0.125 2.234375 -0.00390625 1.734375 -0.265625 C 1.234375 -0.535156 0.84375 -0.898438 0.5625 -1.359375 C 0.289062 -1.816406 0.15625 -2.347656 0.15625 -2.953125 C 0.15625 -3.554688 0.289062 -4.085938 0.5625 -4.546875 C 0.84375 -5.003906 1.234375 -5.363281 1.734375 -5.625 C 2.234375 -5.894531 2.816406 -6.03125 3.484375 -6.03125 C 4.148438 -6.03125 4.734375 -5.894531 5.234375 -5.625 C 5.734375 -5.363281 6.117188 -5.003906 6.390625 -4.546875 C 6.671875 -4.085938 6.8125 -3.554688 6.8125 -2.953125 C 6.8125 -2.347656 6.671875 -1.816406 6.390625 -1.359375 C 6.117188 -0.898438 5.734375 -0.535156 5.234375 -0.265625 C 4.734375 -0.00390625 4.148438 0.125 3.484375 0.125 Z M 2.5625 -2.953125 C 2.5625 -2.679688 2.644531 -2.457031 2.8125 -2.28125 C 2.988281 -2.113281 3.210938 -2.03125 3.484375 -2.03125 C 3.753906 -2.03125 3.972656 -2.113281 4.140625 -2.28125 C 4.316406 -2.457031 4.40625 -2.679688 4.40625 -2.953125 C 4.40625 -3.222656 4.316406 -3.441406 4.140625 -3.609375 C 3.972656 -3.785156 3.753906 -3.875 3.484375 -3.875 C 3.210938 -3.875 2.988281 -3.785156 2.8125 -3.609375 C 2.644531 -3.441406 2.5625 -3.222656 2.5625 -2.953125 Z M 2.5625 -2.953125 "/></g></g></g><g fill="#004aad" fill-opacity="1"><g transform="translate(20.782419, 46.816682)"><g><path d="M 0.40625 0 L 0.40625 -5.90625 L 3.46875 -5.90625 C 4 -5.90625 4.457031 -5.804688 4.84375 -5.609375 C 5.226562 -5.421875 5.523438 -5.15625 5.734375 -4.8125 C 5.953125 -4.46875 6.0625 -4.054688 6.0625 -3.578125 C 6.0625 -3.109375 5.953125 -2.703125 5.734375 -2.359375 C 5.523438 -2.015625 5.226562 -1.742188 4.84375 -1.546875 C 4.46875 -1.359375 4.019531 -1.265625 3.5 -1.265625 L 2.828125 -1.265625 L 2.828125 0 Z M 2.765625 -3.015625 L 3.078125 -3.015625 C 3.472656 -3.015625 3.671875 -3.191406 3.671875 -3.546875 C 3.671875 -3.898438 3.472656 -4.078125 3.078125 -4.078125 L 2.765625 -4.078125 Z M 2.765625 -3.015625 "/></g></g></g><g fill="#004aad" fill-opacity="1"><g transform="translate(26.98528, 46.816682)"><g/></g></g><g fill="#004aad" fill-opacity="1"><g transform="translate(28.774406, 46.816682)"><g><path d="M 2.84375 0.125 C 1.988281 0.125 1.320312 -0.0546875 0.84375 -0.421875 C 0.375 -0.796875 0.140625 -1.304688 0.140625 -1.953125 L 2.421875 -1.953125 C 2.421875 -1.648438 2.566406 -1.5 2.859375 -1.5 C 3.109375 -1.5 3.234375 -1.59375 3.234375 -1.78125 C 3.234375 -1.90625 3.164062 -2.003906 3.03125 -2.078125 C 2.90625 -2.148438 2.675781 -2.210938 2.34375 -2.265625 C 1.59375 -2.378906 1.046875 -2.578125 0.703125 -2.859375 C 0.359375 -3.148438 0.1875 -3.5625 0.1875 -4.09375 C 0.1875 -4.695312 0.414062 -5.171875 0.875 -5.515625 C 1.332031 -5.859375 1.960938 -6.03125 2.765625 -6.03125 C 3.578125 -6.03125 4.210938 -5.851562 4.671875 -5.5 C 5.140625 -5.144531 5.390625 -4.640625 5.421875 -3.984375 L 3.203125 -3.984375 C 3.203125 -4.285156 3.0625 -4.4375 2.78125 -4.4375 C 2.53125 -4.4375 2.40625 -4.34375 2.40625 -4.15625 C 2.40625 -4.03125 2.46875 -3.929688 2.59375 -3.859375 C 2.726562 -3.796875 2.96875 -3.738281 3.3125 -3.6875 C 4.09375 -3.570312 4.65625 -3.367188 5 -3.078125 C 5.351562 -2.785156 5.53125 -2.375 5.53125 -1.84375 C 5.53125 -1.226562 5.296875 -0.742188 4.828125 -0.390625 C 4.359375 -0.046875 3.695312 0.125 2.84375 0.125 Z M 2.84375 0.125 "/></g></g></g><g fill="#004aad" fill-opacity="1"><g transform="translate(34.479353, 46.816682)"><g><path d="M 0.40625 0 L 0.40625 -5.90625 L 4.90625 -5.90625 L 4.90625 -4.28125 L 2.71875 -4.28125 L 2.71875 -3.75 L 4.703125 -3.75 L 4.703125 -2.203125 L 2.71875 -2.203125 L 2.71875 -1.65625 L 4.984375 -1.65625 L 4.984375 0 Z M 0.40625 0 "/></g></g></g><g fill="#004aad" fill-opacity="1"><g transform="translate(39.737016, 46.816682)"><g><path d="M 0.40625 0 L 0.40625 -5.90625 L 3.609375 -5.90625 C 4.128906 -5.90625 4.578125 -5.8125 4.953125 -5.625 C 5.328125 -5.445312 5.613281 -5.191406 5.8125 -4.859375 C 6.019531 -4.535156 6.125 -4.144531 6.125 -3.6875 C 6.125 -3.320312 6.054688 -2.992188 5.921875 -2.703125 C 5.796875 -2.421875 5.609375 -2.179688 5.359375 -1.984375 L 6.25 0 L 3.6875 0 L 3.125 -1.46875 L 2.78125 -1.46875 L 2.78125 0 Z M 2.75 -3.109375 L 3.15625 -3.109375 C 3.332031 -3.109375 3.472656 -3.148438 3.578125 -3.234375 C 3.679688 -3.328125 3.734375 -3.460938 3.734375 -3.640625 C 3.734375 -3.816406 3.679688 -3.945312 3.578125 -4.03125 C 3.472656 -4.113281 3.332031 -4.15625 3.15625 -4.15625 L 2.75 -4.15625 Z M 2.75 -3.109375 "/></g></g></g><g fill="#004aad" fill-opacity="1"><g transform="translate(46.167739, 46.816682)"><g><path d="M 2.015625 0 L 0.015625 -5.90625 L 2.5625 -5.90625 L 2.96875 -4.203125 L 3.28125 -2.828125 L 3.34375 -2.828125 L 3.65625 -4.203125 L 4.0625 -5.90625 L 6.609375 -5.90625 L 4.625 0 Z M 2.015625 0 "/></g></g></g><g fill="#004aad" fill-opacity="1"><g transform="translate(52.801003, 46.816682)"><g><path d="M 0.40625 0 L 0.40625 -5.90625 L 2.828125 -5.90625 L 2.828125 0 Z M 0.40625 0 "/></g></g></g><g fill="#004aad" fill-opacity="1"><g transform="translate(56.041682, 46.816682)"><g><path d="M 3.328125 0.125 C 2.691406 0.125 2.132812 -0.00390625 1.65625 -0.265625 C 1.1875 -0.523438 0.816406 -0.882812 0.546875 -1.34375 C 0.285156 -1.8125 0.15625 -2.347656 0.15625 -2.953125 C 0.15625 -3.554688 0.289062 -4.085938 0.5625 -4.546875 C 0.832031 -5.015625 1.203125 -5.378906 1.671875 -5.640625 C 2.148438 -5.898438 2.703125 -6.03125 3.328125 -6.03125 C 4.242188 -6.03125 4.984375 -5.789062 5.546875 -5.3125 C 6.117188 -4.832031 6.460938 -4.15625 6.578125 -3.28125 L 4.296875 -3.28125 C 4.234375 -3.46875 4.125 -3.613281 3.96875 -3.71875 C 3.8125 -3.820312 3.632812 -3.875 3.4375 -3.875 C 3.175781 -3.875 2.960938 -3.789062 2.796875 -3.625 C 2.640625 -3.457031 2.5625 -3.234375 2.5625 -2.953125 C 2.5625 -2.679688 2.640625 -2.457031 2.796875 -2.28125 C 2.960938 -2.113281 3.175781 -2.03125 3.4375 -2.03125 C 3.644531 -2.03125 3.820312 -2.082031 3.96875 -2.1875 C 4.125 -2.300781 4.234375 -2.453125 4.296875 -2.640625 L 6.59375 -2.640625 C 6.539062 -2.078125 6.367188 -1.585938 6.078125 -1.171875 C 5.785156 -0.765625 5.40625 -0.445312 4.9375 -0.21875 C 4.46875 0.0078125 3.929688 0.125 3.328125 0.125 Z M 3.328125 0.125 "/></g></g></g><g fill="#004aad" fill-opacity="1"><g transform="translate(62.784656, 46.816682)"><g><path d="M 0.40625 0 L 0.40625 -5.90625 L 4.90625 -5.90625 L 4.90625 -4.28125 L 2.71875 -4.28125 L 2.71875 -3.75 L 4.703125 -3.75 L 4.703125 -2.203125 L 2.71875 -2.203125 L 2.71875 -1.65625 L 4.984375 -1.65625 L 4.984375 0 Z M 0.40625 0 "/></g></g></g><g fill="#004aad" fill-opacity="1"><g transform="translate(68.042319, 46.816682)"><g/></g></g><g fill="#004aad" fill-opacity="1"><g transform="translate(69.831445, 46.816682)"><g><path d="M 3.328125 0.125 C 2.691406 0.125 2.132812 -0.00390625 1.65625 -0.265625 C 1.1875 -0.523438 0.816406 -0.882812 0.546875 -1.34375 C 0.285156 -1.8125 0.15625 -2.347656 0.15625 -2.953125 C 0.15625 -3.554688 0.289062 -4.085938 0.5625 -4.546875 C 0.832031 -5.015625 1.203125 -5.378906 1.671875 -5.640625 C 2.148438 -5.898438 2.703125 -6.03125 3.328125 -6.03125 C 4.242188 -6.03125 4.984375 -5.789062 5.546875 -5.3125 C 6.117188 -4.832031 6.460938 -4.15625 6.578125 -3.28125 L 4.296875 -3.28125 C 4.234375 -3.46875 4.125 -3.613281 3.96875 -3.71875 C 3.8125 -3.820312 3.632812 -3.875 3.4375 -3.875 C 3.175781 -3.875 2.960938 -3.789062 2.796875 -3.625 C 2.640625 -3.457031 2.5625 -3.234375 2.5625 -2.953125 C 2.5625 -2.679688 2.640625 -2.457031 2.796875 -2.28125 C 2.960938 -2.113281 3.175781 -2.03125 3.4375 -2.03125 C 3.644531 -2.03125 3.820312 -2.082031 3.96875 -2.1875 C 4.125 -2.300781 4.234375 -2.453125 4.296875 -2.640625 L 6.59375 -2.640625 C 6.539062 -2.078125 6.367188 -1.585938 6.078125 -1.171875 C 5.785156 -0.765625 5.40625 -0.445312 4.9375 -0.21875 C 4.46875 0.0078125 3.929688 0.125 3.328125 0.125 Z M 3.328125 0.125 "/></g></g></g><g fill="#004aad" fill-opacity="1"><g transform="translate(76.57442, 46.816682)"><g><path d="M 0.40625 0 L 0.40625 -5.90625 L 4.90625 -5.90625 L 4.90625 -4.28125 L 2.71875 -4.28125 L 2.71875 -3.75 L 4.703125 -3.75 L 4.703125 -2.203125 L 2.71875 -2.203125 L 2.71875 -1.65625 L 4.984375 -1.65625 L 4.984375 0 Z M 0.40625 0 "/></g></g></g><g fill="#004aad" fill-opacity="1"><g transform="translate(81.832083, 46.816682)"><g><path d="M 0.40625 0 L 0.40625 -5.90625 L 2.359375 -5.90625 L 3.875 -3.765625 L 3.953125 -3.78125 L 3.921875 -4.578125 L 3.921875 -5.90625 L 6.25 -5.90625 L 6.25 0 L 4.296875 0 L 2.78125 -2.140625 L 2.703125 -2.140625 L 2.734375 -1.328125 L 2.734375 0 Z M 0.40625 0 "/></g></g></g><g fill="#004aad" fill-opacity="1"><g transform="translate(88.490663, 46.816682)"><g><path d="M 1.84375 0 L 1.84375 -3.765625 L 0.234375 -3.765625 L 0.234375 -5.90625 L 5.875 -5.90625 L 5.875 -3.765625 L 4.265625 -3.765625 L 4.265625 0 Z M 1.84375 0 "/></g></g></g><g fill="#004aad" fill-opacity="1"><g transform="translate(94.600695, 46.816682)"><g><path d="M 0.40625 0 L 0.40625 -5.90625 L 3.609375 -5.90625 C 4.128906 -5.90625 4.578125 -5.8125 4.953125 -5.625 C 5.328125 -5.445312 5.613281 -5.191406 5.8125 -4.859375 C 6.019531 -4.535156 6.125 -4.144531 6.125 -3.6875 C 6.125 -3.320312 6.054688 -2.992188 5.921875 -2.703125 C 5.796875 -2.421875 5.609375 -2.179688 5.359375 -1.984375 L 6.25 0 L 3.6875 0 L 3.125 -1.46875 L 2.78125 -1.46875 L 2.78125 0 Z M 2.75 -3.109375 L 3.15625 -3.109375 C 3.332031 -3.109375 3.472656 -3.148438 3.578125 -3.234375 C 3.679688 -3.328125 3.734375 -3.460938 3.734375 -3.640625 C 3.734375 -3.816406 3.679688 -3.945312 3.578125 -4.03125 C 3.472656 -4.113281 3.332031 -4.15625 3.15625 -4.15625 L 2.75 -4.15625 Z M 2.75 -3.109375 "/></g></g></g><g fill="#004aad" fill-opacity="1"><g transform="translate(101.031419, 46.816682)"><g><path d="M 0.40625 0 L 0.40625 -5.90625 L 4.90625 -5.90625 L 4.90625 -4.28125 L 2.71875 -4.28125 L 2.71875 -3.75 L 4.703125 -3.75 L 4.703125 -2.203125 L 2.71875 -2.203125 L 2.71875 -1.65625 L 4.984375 -1.65625 L 4.984375 0 Z M 0.40625 0 "/></g></g></g><g fill="#004aad" fill-opacity="1"><g transform="translate(106.292345, 46.816682)"><g/></g></g><g fill="#000000" fill-opacity="1"><g transform="translate(21.318317, 55.589382)"><g><path d="M 0.515625 0 L 0.515625 -4.015625 L 2.140625 -4.015625 C 2.546875 -4.015625 2.851562 -3.914062 3.0625 -3.71875 C 3.28125 -3.53125 3.390625 -3.269531 3.390625 -2.9375 C 3.390625 -2.695312 3.328125 -2.5 3.203125 -2.34375 C 3.078125 -2.1875 2.894531 -2.066406 2.65625 -1.984375 L 2.65625 -1.921875 C 2.78125 -1.867188 2.878906 -1.785156 2.953125 -1.671875 C 3.035156 -1.566406 3.113281 -1.410156 3.1875 -1.203125 L 3.578125 0 L 2.765625 0 L 2.375 -1.203125 C 2.332031 -1.316406 2.285156 -1.40625 2.234375 -1.46875 C 2.179688 -1.539062 2.113281 -1.59375 2.03125 -1.625 C 1.957031 -1.65625 1.859375 -1.671875 1.734375 -1.671875 L 1.3125 -1.671875 L 1.3125 0 Z M 2.03125 -2.296875 C 2.414062 -2.296875 2.609375 -2.476562 2.609375 -2.84375 C 2.609375 -3.207031 2.414062 -3.390625 2.03125 -3.390625 L 1.3125 -3.390625 L 1.3125 -2.296875 Z M 2.03125 -2.296875 "/></g></g></g><g fill="#000000" fill-opacity="1"><g transform="translate(27.010748, 55.589382)"><g><path d="M 3 -1.34375 L 1.046875 -1.34375 C 1.066406 -1.082031 1.140625 -0.890625 1.265625 -0.765625 C 1.398438 -0.648438 1.578125 -0.59375 1.796875 -0.59375 C 1.972656 -0.59375 2.113281 -0.625 2.21875 -0.6875 C 2.320312 -0.75 2.410156 -0.847656 2.484375 -0.984375 L 2.53125 -0.984375 L 3.046875 -0.65625 C 2.941406 -0.445312 2.789062 -0.273438 2.59375 -0.140625 C 2.394531 -0.00390625 2.128906 0.0625 1.796875 0.0625 C 1.484375 0.0625 1.210938 0.00390625 0.984375 -0.109375 C 0.753906 -0.234375 0.578125 -0.410156 0.453125 -0.640625 C 0.328125 -0.878906 0.265625 -1.171875 0.265625 -1.515625 C 0.265625 -1.859375 0.328125 -2.144531 0.453125 -2.375 C 0.585938 -2.613281 0.765625 -2.789062 0.984375 -2.90625 C 1.210938 -3.03125 1.460938 -3.09375 1.734375 -3.09375 C 2.171875 -3.09375 2.5 -2.976562 2.71875 -2.75 C 2.945312 -2.519531 3.0625 -2.1875 3.0625 -1.75 C 3.0625 -1.59375 3.054688 -1.46875 3.046875 -1.375 Z M 2.34375 -1.828125 C 2.332031 -2.066406 2.273438 -2.238281 2.171875 -2.34375 C 2.078125 -2.445312 1.929688 -2.5 1.734375 -2.5 C 1.359375 -2.5 1.132812 -2.273438 1.0625 -1.828125 Z M 2.34375 -1.828125 "/></g></g></g><g fill="#000000" fill-opacity="1"><g transform="translate(32.242676, 55.589382)"><g><path d="M 0.4375 1.234375 L 0.4375 -3.03125 L 1.203125 -3.03125 L 1.203125 -2.640625 L 1.25 -2.625 C 1.34375 -2.78125 1.460938 -2.894531 1.609375 -2.96875 C 1.765625 -3.050781 1.941406 -3.09375 2.140625 -3.09375 C 2.378906 -3.09375 2.585938 -3.03125 2.765625 -2.90625 C 2.953125 -2.789062 3.097656 -2.613281 3.203125 -2.375 C 3.304688 -2.144531 3.359375 -1.859375 3.359375 -1.515625 C 3.359375 -1.171875 3.300781 -0.878906 3.1875 -0.640625 C 3.082031 -0.410156 2.9375 -0.234375 2.75 -0.109375 C 2.5625 0.00390625 2.34375 0.0625 2.09375 0.0625 C 1.90625 0.0625 1.738281 0.03125 1.59375 -0.03125 C 1.457031 -0.09375 1.34375 -0.191406 1.25 -0.328125 L 1.203125 -0.328125 L 1.203125 1.234375 Z M 1.875 -0.59375 C 2.101562 -0.59375 2.273438 -0.664062 2.390625 -0.8125 C 2.515625 -0.957031 2.578125 -1.191406 2.578125 -1.515625 C 2.578125 -1.835938 2.515625 -2.070312 2.390625 -2.21875 C 2.273438 -2.363281 2.101562 -2.4375 1.875 -2.4375 C 1.664062 -2.4375 1.5 -2.359375 1.375 -2.203125 C 1.25 -2.054688 1.1875 -1.828125 1.1875 -1.515625 C 1.1875 -1.203125 1.25 -0.96875 1.375 -0.8125 C 1.5 -0.664062 1.664062 -0.59375 1.875 -0.59375 Z M 1.875 -0.59375 "/></g></g></g><g fill="#000000" fill-opacity="1"><g transform="translate(37.809016, 55.589382)"><g><path d="M 1.1875 0.0625 C 0.988281 0.0625 0.816406 0.0234375 0.671875 -0.046875 C 0.535156 -0.117188 0.425781 -0.222656 0.34375 -0.359375 C 0.269531 -0.503906 0.234375 -0.671875 0.234375 -0.859375 C 0.234375 -1.035156 0.269531 -1.1875 0.34375 -1.3125 C 0.425781 -1.4375 0.546875 -1.535156 0.703125 -1.609375 C 0.859375 -1.691406 1.066406 -1.753906 1.328125 -1.796875 C 1.515625 -1.828125 1.65625 -1.859375 1.75 -1.890625 C 1.84375 -1.921875 1.90625 -1.957031 1.9375 -2 C 1.96875 -2.050781 1.984375 -2.109375 1.984375 -2.171875 C 1.984375 -2.273438 1.945312 -2.347656 1.875 -2.390625 C 1.8125 -2.441406 1.703125 -2.46875 1.546875 -2.46875 C 1.378906 -2.46875 1.21875 -2.429688 1.0625 -2.359375 C 0.914062 -2.285156 0.785156 -2.1875 0.671875 -2.0625 L 0.625 -2.0625 L 0.296875 -2.546875 C 0.453125 -2.710938 0.640625 -2.84375 0.859375 -2.9375 C 1.078125 -3.039062 1.320312 -3.09375 1.59375 -3.09375 C 1.988281 -3.09375 2.273438 -3.003906 2.453125 -2.828125 C 2.640625 -2.660156 2.734375 -2.421875 2.734375 -2.109375 L 2.734375 -0.796875 C 2.734375 -0.660156 2.789062 -0.59375 2.90625 -0.59375 C 2.945312 -0.59375 2.992188 -0.597656 3.046875 -0.609375 L 3.078125 -0.59375 L 3.140625 -0.078125 C 3.097656 -0.046875 3.035156 -0.0195312 2.953125 0 C 2.878906 0.0078125 2.796875 0.015625 2.703125 0.015625 C 2.523438 0.015625 2.382812 -0.015625 2.28125 -0.078125 C 2.1875 -0.148438 2.113281 -0.257812 2.0625 -0.40625 L 2.015625 -0.421875 C 1.859375 -0.0976562 1.582031 0.0625 1.1875 0.0625 Z M 1.421875 -0.515625 C 1.597656 -0.515625 1.738281 -0.570312 1.84375 -0.6875 C 1.945312 -0.800781 2 -0.96875 2 -1.1875 L 2 -1.484375 L 1.953125 -1.5 C 1.898438 -1.457031 1.835938 -1.425781 1.765625 -1.40625 C 1.691406 -1.382812 1.585938 -1.359375 1.453125 -1.328125 C 1.285156 -1.304688 1.164062 -1.257812 1.09375 -1.1875 C 1.019531 -1.125 0.984375 -1.03125 0.984375 -0.90625 C 0.984375 -0.78125 1.019531 -0.679688 1.09375 -0.609375 C 1.175781 -0.546875 1.285156 -0.515625 1.421875 -0.515625 Z M 1.421875 -0.515625 "/></g></g></g><g fill="#000000" fill-opacity="1"><g transform="translate(42.942266, 55.589382)"><g><path d="M 0.8125 -3.390625 C 0.675781 -3.390625 0.566406 -3.429688 0.484375 -3.515625 C 0.398438 -3.597656 0.359375 -3.707031 0.359375 -3.84375 C 0.359375 -3.96875 0.398438 -4.070312 0.484375 -4.15625 C 0.566406 -4.238281 0.675781 -4.28125 0.8125 -4.28125 C 0.90625 -4.28125 0.988281 -4.257812 1.0625 -4.21875 C 1.132812 -4.1875 1.1875 -4.132812 1.21875 -4.0625 C 1.257812 -4 1.28125 -3.925781 1.28125 -3.84375 C 1.28125 -3.75 1.257812 -3.664062 1.21875 -3.59375 C 1.1875 -3.53125 1.132812 -3.476562 1.0625 -3.4375 C 0.988281 -3.40625 0.90625 -3.390625 0.8125 -3.390625 Z M 0.4375 0 L 0.4375 -3.03125 L 1.203125 -3.03125 L 1.203125 0 Z M 0.4375 0 "/></g></g></g><g fill="#000000" fill-opacity="1"><g transform="translate(46.515838, 55.589382)"><g><path d="M 0.4375 0 L 0.4375 -3.03125 L 1.171875 -3.03125 L 1.171875 -2.578125 L 1.234375 -2.5625 C 1.304688 -2.738281 1.398438 -2.863281 1.515625 -2.9375 C 1.640625 -3.019531 1.785156 -3.0625 1.953125 -3.0625 C 2.128906 -3.0625 2.257812 -3.03125 2.34375 -2.96875 L 2.21875 -2.3125 L 2.15625 -2.296875 C 2.113281 -2.316406 2.066406 -2.332031 2.015625 -2.34375 C 1.972656 -2.351562 1.914062 -2.359375 1.84375 -2.359375 C 1.632812 -2.359375 1.472656 -2.28125 1.359375 -2.125 C 1.253906 -1.976562 1.203125 -1.742188 1.203125 -1.421875 L 1.203125 0 Z M 0.4375 0 "/></g></g></g><g fill="#000000" fill-opacity="1"><g transform="translate(50.832244, 55.589382)"><g/></g></g><g fill="#000000" fill-opacity="1"><g transform="translate(54.101556, 55.589382)"><g><path d="M 1.640625 0.0625 C 1.347656 0.0625 1.09375 0.015625 0.875 -0.078125 C 0.65625 -0.179688 0.488281 -0.328125 0.375 -0.515625 C 0.257812 -0.703125 0.203125 -0.914062 0.203125 -1.15625 C 0.203125 -1.414062 0.265625 -1.632812 0.390625 -1.8125 C 0.523438 -1.988281 0.722656 -2.132812 0.984375 -2.25 L 1 -2.296875 C 0.875 -2.453125 0.785156 -2.59375 0.734375 -2.71875 C 0.679688 -2.84375 0.65625 -2.976562 0.65625 -3.125 C 0.65625 -3.3125 0.695312 -3.472656 0.78125 -3.609375 C 0.875 -3.753906 1.003906 -3.867188 1.171875 -3.953125 C 1.335938 -4.035156 1.535156 -4.078125 1.765625 -4.078125 C 1.984375 -4.078125 2.171875 -4.039062 2.328125 -3.96875 C 2.484375 -3.894531 2.601562 -3.789062 2.6875 -3.65625 C 2.769531 -3.53125 2.8125 -3.378906 2.8125 -3.203125 C 2.8125 -2.972656 2.742188 -2.773438 2.609375 -2.609375 C 2.472656 -2.441406 2.257812 -2.300781 1.96875 -2.1875 L 1.96875 -2.140625 L 2.703125 -1.15625 C 2.753906 -1.25 2.785156 -1.359375 2.796875 -1.484375 C 2.816406 -1.609375 2.828125 -1.75 2.828125 -1.90625 L 2.828125 -2.046875 L 3.46875 -2.046875 C 3.46875 -1.484375 3.359375 -1.023438 3.140625 -0.671875 C 3.179688 -0.640625 3.21875 -0.613281 3.25 -0.59375 C 3.289062 -0.582031 3.332031 -0.578125 3.375 -0.578125 C 3.40625 -0.578125 3.429688 -0.578125 3.453125 -0.578125 C 3.484375 -0.585938 3.515625 -0.59375 3.546875 -0.59375 L 3.578125 -0.59375 L 3.671875 -0.03125 C 3.640625 -0.0078125 3.59375 0.00390625 3.53125 0.015625 C 3.46875 0.0234375 3.394531 0.03125 3.3125 0.03125 C 3.175781 0.03125 3.054688 0.0078125 2.953125 -0.03125 C 2.859375 -0.0703125 2.765625 -0.140625 2.671875 -0.234375 L 2.609375 -0.234375 C 2.390625 -0.0351562 2.066406 0.0625 1.640625 0.0625 Z M 1.640625 -2.578125 C 1.804688 -2.660156 1.925781 -2.742188 2 -2.828125 C 2.082031 -2.910156 2.125 -3.019531 2.125 -3.15625 C 2.125 -3.269531 2.085938 -3.359375 2.015625 -3.421875 C 1.953125 -3.484375 1.867188 -3.515625 1.765625 -3.515625 C 1.648438 -3.515625 1.554688 -3.476562 1.484375 -3.40625 C 1.421875 -3.34375 1.390625 -3.253906 1.390625 -3.140625 C 1.390625 -3.046875 1.40625 -2.960938 1.4375 -2.890625 C 1.476562 -2.816406 1.546875 -2.710938 1.640625 -2.578125 Z M 1.734375 -0.59375 C 1.910156 -0.59375 2.0625 -0.628906 2.1875 -0.703125 L 1.296875 -1.828125 C 1.191406 -1.765625 1.113281 -1.6875 1.0625 -1.59375 C 1.007812 -1.5 0.984375 -1.382812 0.984375 -1.25 C 0.984375 -1.125 1.015625 -1.007812 1.078125 -0.90625 C 1.140625 -0.8125 1.226562 -0.734375 1.34375 -0.671875 C 1.457031 -0.617188 1.585938 -0.59375 1.734375 -0.59375 Z M 1.734375 -0.59375 "/></g></g></g><g fill="#000000" fill-opacity="1"><g transform="translate(59.791246, 55.589382)"><g/></g></g><g fill="#000000" fill-opacity="1"><g transform="translate(63.060558, 55.589382)"><g><path d="M 1.421875 0.0625 C 1.210938 0.0625 1.019531 0.0351562 0.84375 -0.015625 C 0.675781 -0.0664062 0.53125 -0.132812 0.40625 -0.21875 C 0.28125 -0.300781 0.191406 -0.398438 0.140625 -0.515625 L 0.5625 -0.96875 L 0.625 -0.96875 C 0.71875 -0.832031 0.832031 -0.726562 0.96875 -0.65625 C 1.113281 -0.59375 1.265625 -0.5625 1.421875 -0.5625 C 1.566406 -0.5625 1.675781 -0.585938 1.75 -0.640625 C 1.832031 -0.691406 1.875 -0.765625 1.875 -0.859375 C 1.875 -0.941406 1.84375 -1.007812 1.78125 -1.0625 C 1.726562 -1.113281 1.644531 -1.15625 1.53125 -1.1875 L 1.125 -1.28125 C 0.820312 -1.351562 0.601562 -1.460938 0.46875 -1.609375 C 0.332031 -1.753906 0.265625 -1.941406 0.265625 -2.171875 C 0.265625 -2.359375 0.3125 -2.519531 0.40625 -2.65625 C 0.5 -2.800781 0.632812 -2.910156 0.8125 -2.984375 C 0.988281 -3.054688 1.191406 -3.09375 1.421875 -3.09375 C 1.691406 -3.09375 1.914062 -3.050781 2.09375 -2.96875 C 2.28125 -2.882812 2.421875 -2.78125 2.515625 -2.65625 L 2.109375 -2.21875 L 2.0625 -2.21875 C 1.976562 -2.3125 1.882812 -2.378906 1.78125 -2.421875 C 1.675781 -2.460938 1.554688 -2.484375 1.421875 -2.484375 C 1.117188 -2.484375 0.96875 -2.390625 0.96875 -2.203125 C 0.96875 -2.128906 0.992188 -2.066406 1.046875 -2.015625 C 1.109375 -1.960938 1.207031 -1.921875 1.34375 -1.890625 L 1.71875 -1.8125 C 2.03125 -1.75 2.253906 -1.644531 2.390625 -1.5 C 2.535156 -1.351562 2.609375 -1.15625 2.609375 -0.90625 C 2.609375 -0.71875 2.5625 -0.550781 2.46875 -0.40625 C 2.375 -0.257812 2.234375 -0.144531 2.046875 -0.0625 C 1.867188 0.0195312 1.660156 0.0625 1.421875 0.0625 Z M 1.421875 0.0625 "/></g></g></g><g fill="#000000" fill-opacity="1"><g transform="translate(67.79361, 55.589382)"><g><path d="M 3 -1.34375 L 1.046875 -1.34375 C 1.066406 -1.082031 1.140625 -0.890625 1.265625 -0.765625 C 1.398438 -0.648438 1.578125 -0.59375 1.796875 -0.59375 C 1.972656 -0.59375 2.113281 -0.625 2.21875 -0.6875 C 2.320312 -0.75 2.410156 -0.847656 2.484375 -0.984375 L 2.53125 -0.984375 L 3.046875 -0.65625 C 2.941406 -0.445312 2.789062 -0.273438 2.59375 -0.140625 C 2.394531 -0.00390625 2.128906 0.0625 1.796875 0.0625 C 1.484375 0.0625 1.210938 0.00390625 0.984375 -0.109375 C 0.753906 -0.234375 0.578125 -0.410156 0.453125 -0.640625 C 0.328125 -0.878906 0.265625 -1.171875 0.265625 -1.515625 C 0.265625 -1.859375 0.328125 -2.144531 0.453125 -2.375 C 0.585938 -2.613281 0.765625 -2.789062 0.984375 -2.90625 C 1.210938 -3.03125 1.460938 -3.09375 1.734375 -3.09375 C 2.171875 -3.09375 2.5 -2.976562 2.71875 -2.75 C 2.945312 -2.519531 3.0625 -2.1875 3.0625 -1.75 C 3.0625 -1.59375 3.054688 -1.46875 3.046875 -1.375 Z M 2.34375 -1.828125 C 2.332031 -2.066406 2.273438 -2.238281 2.171875 -2.34375 C 2.078125 -2.445312 1.929688 -2.5 1.734375 -2.5 C 1.359375 -2.5 1.132812 -2.273438 1.0625 -1.828125 Z M 2.34375 -1.828125 "/></g></g></g><g fill="#000000" fill-opacity="1"><g transform="translate(73.025536, 55.589382)"><g><path d="M 0.4375 0 L 0.4375 -3.03125 L 1.171875 -3.03125 L 1.171875 -2.578125 L 1.234375 -2.5625 C 1.304688 -2.738281 1.398438 -2.863281 1.515625 -2.9375 C 1.640625 -3.019531 1.785156 -3.0625 1.953125 -3.0625 C 2.128906 -3.0625 2.257812 -3.03125 2.34375 -2.96875 L 2.21875 -2.3125 L 2.15625 -2.296875 C 2.113281 -2.316406 2.066406 -2.332031 2.015625 -2.34375 C 1.972656 -2.351562 1.914062 -2.359375 1.84375 -2.359375 C 1.632812 -2.359375 1.472656 -2.28125 1.359375 -2.125 C 1.253906 -1.976562 1.203125 -1.742188 1.203125 -1.421875 L 1.203125 0 Z M 0.4375 0 "/></g></g></g><g fill="#000000" fill-opacity="1"><g transform="translate(77.341942, 55.589382)"><g><path d="M 2.078125 0 L 1.171875 0 L 0.0625 -3.03125 L 0.859375 -3.03125 L 1.609375 -0.875 L 1.671875 -0.875 L 2.421875 -3.03125 L 3.203125 -3.03125 Z M 2.078125 0 "/></g></g></g><g fill="#000000" fill-opacity="1"><g transform="translate(82.538237, 55.589382)"><g><path d="M 0.8125 -3.390625 C 0.675781 -3.390625 0.566406 -3.429688 0.484375 -3.515625 C 0.398438 -3.597656 0.359375 -3.707031 0.359375 -3.84375 C 0.359375 -3.96875 0.398438 -4.070312 0.484375 -4.15625 C 0.566406 -4.238281 0.675781 -4.28125 0.8125 -4.28125 C 0.90625 -4.28125 0.988281 -4.257812 1.0625 -4.21875 C 1.132812 -4.1875 1.1875 -4.132812 1.21875 -4.0625 C 1.257812 -4 1.28125 -3.925781 1.28125 -3.84375 C 1.28125 -3.75 1.257812 -3.664062 1.21875 -3.59375 C 1.1875 -3.53125 1.132812 -3.476562 1.0625 -3.4375 C 0.988281 -3.40625 0.90625 -3.390625 0.8125 -3.390625 Z M 0.4375 0 L 0.4375 -3.03125 L 1.203125 -3.03125 L 1.203125 0 Z M 0.4375 0 "/></g></g></g><g fill="#000000" fill-opacity="1"><g transform="translate(86.111809, 55.589382)"><g><path d="M 1.765625 0.0625 C 1.472656 0.0625 1.210938 0 0.984375 -0.125 C 0.765625 -0.25 0.585938 -0.425781 0.453125 -0.65625 C 0.328125 -0.894531 0.265625 -1.179688 0.265625 -1.515625 C 0.265625 -1.847656 0.328125 -2.128906 0.453125 -2.359375 C 0.585938 -2.597656 0.765625 -2.78125 0.984375 -2.90625 C 1.210938 -3.03125 1.46875 -3.09375 1.75 -3.09375 C 2.382812 -3.09375 2.796875 -2.859375 2.984375 -2.390625 L 2.453125 -2.015625 L 2.40625 -2.015625 C 2.34375 -2.160156 2.257812 -2.265625 2.15625 -2.328125 C 2.050781 -2.398438 1.914062 -2.4375 1.75 -2.4375 C 1.53125 -2.4375 1.359375 -2.359375 1.234375 -2.203125 C 1.117188 -2.054688 1.0625 -1.828125 1.0625 -1.515625 C 1.0625 -1.203125 1.117188 -0.96875 1.234375 -0.8125 C 1.359375 -0.664062 1.535156 -0.59375 1.765625 -0.59375 C 1.929688 -0.59375 2.070312 -0.632812 2.1875 -0.71875 C 2.300781 -0.8125 2.382812 -0.941406 2.4375 -1.109375 L 2.484375 -1.109375 L 3.03125 -0.8125 C 2.957031 -0.550781 2.816406 -0.335938 2.609375 -0.171875 C 2.398438 -0.015625 2.117188 0.0625 1.765625 0.0625 Z M 1.765625 0.0625 "/></g></g></g><g fill="#000000" fill-opacity="1"><g transform="translate(91.173791, 55.589382)"><g><path d="M 3 -1.34375 L 1.046875 -1.34375 C 1.066406 -1.082031 1.140625 -0.890625 1.265625 -0.765625 C 1.398438 -0.648438 1.578125 -0.59375 1.796875 -0.59375 C 1.972656 -0.59375 2.113281 -0.625 2.21875 -0.6875 C 2.320312 -0.75 2.410156 -0.847656 2.484375 -0.984375 L 2.53125 -0.984375 L 3.046875 -0.65625 C 2.941406 -0.445312 2.789062 -0.273438 2.59375 -0.140625 C 2.394531 -0.00390625 2.128906 0.0625 1.796875 0.0625 C 1.484375 0.0625 1.210938 0.00390625 0.984375 -0.109375 C 0.753906 -0.234375 0.578125 -0.410156 0.453125 -0.640625 C 0.328125 -0.878906 0.265625 -1.171875 0.265625 -1.515625 C 0.265625 -1.859375 0.328125 -2.144531 0.453125 -2.375 C 0.585938 -2.613281 0.765625 -2.789062 0.984375 -2.90625 C 1.210938 -3.03125 1.460938 -3.09375 1.734375 -3.09375 C 2.171875 -3.09375 2.5 -2.976562 2.71875 -2.75 C 2.945312 -2.519531 3.0625 -2.1875 3.0625 -1.75 C 3.0625 -1.59375 3.054688 -1.46875 3.046875 -1.375 Z M 2.34375 -1.828125 C 2.332031 -2.066406 2.273438 -2.238281 2.171875 -2.34375 C 2.078125 -2.445312 1.929688 -2.5 1.734375 -2.5 C 1.359375 -2.5 1.132812 -2.273438 1.0625 -1.828125 Z M 2.34375 -1.828125 "/></g></g></g></svg>